<?xml version="1.0" encoding="UTF-8"?>
<svg xmlns="http://www.w3.org/2000/svg" width="900" height="508">
<rect x="58.6957" y="58.6154" width="782.609" height="390.769" fill="white" stroke="black" stroke-width="2"/>
<rect x="236.413" y="236.09" width="166.304" height="166.077" fill="#ffb347" opacity="0.55" stroke="#ff8c00" stroke-width="2"/>
<rect x="497.283" y="105.833" width="166.304" height="166.077" fill="#ffb347" opacity="0.55" stroke="#ff8c00" stroke-width="2"/>
<polyline fill="none" stroke="#000000" stroke-width="3" points="58.6957,449.385 234.783,234.462 489.13,97.6923 841.304,58.6154 "/>
<polyline fill="none" stroke="#1f77b4" stroke-width="3.5" points="58.6957,449.385 61.3633,446.129 63.8405,443.105 66.1396,440.299 68.2729,437.695 70.2529,435.278 72.092,433.034 73.8026,430.946 75.3971,429 76.8878,427.18 78.2873,425.472 79.6078,423.86 80.8618,422.33 82.0617,420.865 83.2198,419.452 84.3446,418.079 85.4389,416.743 86.5053,415.442 87.5462,414.171 88.5641,412.929 89.5615,411.711 90.5408,410.516 91.5046,409.34 92.4553,408.179 93.3954,407.032 94.3274,405.894 95.2538,404.764 96.177,403.637 97.0994,402.511 98.0217,401.385 98.9441,400.259 99.8665,399.134 100.789,398.008 101.711,396.882 102.634,395.756 103.556,394.63 104.478,393.505 105.401,392.379 106.323,391.253 107.245,390.127 108.168,389.001 109.09,387.876 110.012,386.75 110.935,385.624 111.857,384.498 112.78,383.373 113.702,382.247 114.624,381.121 115.547,379.995 116.469,378.869 117.391,377.744 118.314,376.618 119.236,375.492 120.158,374.366 121.081,373.24 122.003,372.115 122.925,370.989 123.848,369.863 124.77,368.737 125.693,367.612 126.615,366.486 127.537,365.36 128.46,364.234 129.382,363.108 130.304,361.983 131.227,360.857 132.149,359.731 133.071,358.605 133.994,357.479 134.916,356.354 135.839,355.228 136.761,354.102 137.683,352.976 138.606,351.85 139.528,350.725 140.45,349.599 141.373,348.473 142.295,347.347 143.217,346.222 144.14,345.096 145.062,343.97 145.984,342.844 146.907,341.718 147.829,340.593 148.752,339.467 149.674,338.341 150.596,337.215 151.519,336.089 152.441,334.964 153.363,333.838 154.286,332.712 155.208,331.586 156.13,330.461 157.053,329.335 157.975,328.209 158.898,327.083 159.82,325.957 160.742,324.832 161.665,323.706 162.587,322.58 163.509,321.454 164.432,320.328 165.354,319.203 166.276,318.077 167.199,316.951 168.121,315.825 169.043,314.699 169.966,313.574 170.888,312.448 171.811,311.322 172.733,310.196 173.655,309.071 174.578,307.945 175.5,306.819 176.422,305.693 177.345,304.567 178.267,303.442 179.189,302.316 180.112,301.19 181.034,300.064 181.957,298.938 182.879,297.813 183.801,296.687 184.724,295.561 185.646,294.435 186.568,293.31 187.491,292.184 188.413,291.058 189.335,289.932 190.258,288.806 191.18,287.681 192.102,286.555 193.025,285.429 193.947,284.303 194.87,283.177 195.792,282.052 196.714,280.926 197.637,279.8 198.559,278.674 199.481,277.548 200.404,276.423 201.326,275.297 202.248,274.171 203.171,273.045 204.093,271.92 205.016,270.794 205.938,269.668 206.86,268.542 207.783,267.416 208.705,266.291 209.627,265.165 210.55,264.039 211.472,262.913 212.394,261.787 213.317,260.662 214.239,259.536 215.161,258.41 216.084,257.284 217.006,256.159 217.929,255.033 218.851,253.907 219.773,252.781 220.696,251.655 221.618,250.53 222.54,249.404 223.464,248.279 224.39,247.157 225.321,246.04 226.26,244.931 227.209,243.831 228.169,242.744 229.144,241.67 230.134,240.612 231.143,239.573 232.173,238.554 233.226,237.559 234.303,236.588 235.408,235.644 236.542,234.73 237.704,233.844 238.893,232.984 240.106,232.148 241.341,231.334 242.595,230.54 243.867,229.763 245.153,229.001 246.453,228.253 247.764,227.515 249.084,226.785 250.409,226.063 251.739,225.344 253.071,224.627 254.404,223.911 255.736,223.194 257.068,222.478 258.401,221.762 259.733,221.045 261.065,220.329 262.398,219.612 263.73,218.896 265.062,218.179 266.394,217.463 267.727,216.747 269.059,216.03 270.391,215.314 271.724,214.597 273.056,213.881 274.388,213.165 275.72,212.448 277.053,211.732 278.385,211.015 279.717,210.299 281.05,209.583 282.382,208.866 283.714,208.15 285.047,207.433 286.379,206.717 287.711,206.001 289.043,205.284 290.376,204.568 291.708,203.851 293.04,203.135 294.373,202.418 295.705,201.702 297.037,200.986 298.37,200.269 299.702,199.553 301.034,198.836 302.366,198.12 303.699,197.404 305.031,196.687 306.363,195.971 307.696,195.254 309.028,194.538 310.36,193.822 311.693,193.105 313.025,192.389 314.357,191.672 315.689,190.956 317.022,190.239 318.354,189.523 319.686,188.807 321.019,188.09 322.351,187.374 323.683,186.657 325.016,185.941 326.348,185.225 327.68,184.508 329.012,183.792 330.345,183.075 331.677,182.359 333.009,181.643 334.342,180.926 335.674,180.21 337.006,179.493 338.339,178.777 339.671,178.061 341.003,177.344 342.335,176.628 343.668,175.911 345,175.195 346.332,174.478 347.665,173.762 348.997,173.046 350.329,172.329 351.661,171.613 352.994,170.896 354.326,170.18 355.658,169.464 356.991,168.747 358.323,168.031 359.655,167.314 360.988,166.598 362.32,165.882 363.652,165.165 364.984,164.449 366.317,163.732 367.649,163.016 368.981,162.299 370.314,161.583 371.646,160.867 372.978,160.15 374.311,159.434 375.643,158.717 376.975,158.001 378.307,157.285 379.64,156.568 380.972,155.852 382.304,155.135 383.637,154.419 384.969,153.703 386.301,152.986 387.634,152.27 388.966,151.553 390.298,150.837 391.63,150.121 392.963,149.404 394.295,148.688 395.627,147.971 396.96,147.255 398.292,146.538 399.624,145.822 400.957,145.106 402.289,144.389 403.621,143.673 404.953,142.956 406.286,142.24 407.618,141.524 408.95,140.807 410.283,140.091 411.615,139.374 412.947,138.658 414.28,137.942 415.612,137.225 416.944,136.509 418.276,135.792 419.609,135.076 420.941,134.359 422.273,133.643 423.606,132.927 424.938,132.21 426.27,131.494 427.602,130.777 428.935,130.061 430.267,129.345 431.599,128.628 432.932,127.912 434.264,127.195 435.596,126.479 436.929,125.763 438.261,125.046 439.593,124.33 440.925,123.613 442.258,122.897 443.59,122.181 444.922,121.464 446.255,120.748 447.587,120.031 448.919,119.315 450.252,118.598 451.584,117.882 452.916,117.166 454.248,116.449 455.581,115.733 456.913,115.016 458.245,114.3 459.578,113.584 460.91,112.867 462.242,112.151 463.575,111.434 464.907,110.718 466.239,110.002 467.571,109.285 468.904,108.569 470.236,107.852 471.568,107.136 472.901,106.421 474.234,105.71 475.569,105.007 476.906,104.314 478.245,103.635 479.587,102.972 480.932,102.328 482.282,101.706 483.637,101.11 484.996,100.542 486.362,100.006 487.733,99.5038 489.112,99.039 490.498,98.6139 491.891,98.2272 493.29,97.876 494.696,97.5571 496.106,97.2677 497.522,97.0047 498.942,96.7651 500.366,96.546 501.793,96.3443 503.223,96.157 504.654,95.9812 506.088,95.8138 507.522,95.6519 508.957,95.4924 510.391,95.3332 511.826,95.174 513.261,95.0148 514.696,94.8556 516.13,94.6964 517.565,94.5372 519,94.378 520.435,94.2188 521.87,94.0596 523.304,93.9004 524.739,93.7412 526.174,93.582 527.609,93.4228 529.043,93.2636 530.478,93.1044 531.913,92.9452 533.348,92.786 534.783,92.6268 536.217,92.4676 537.652,92.3084 539.087,92.1492 540.522,91.99 541.957,91.8308 543.391,91.6716 544.826,91.5124 546.261,91.3532 547.696,91.194 549.13,91.0348 550.565,90.8756 552,90.7164 553.435,90.5572 554.87,90.3979 556.304,90.2387 557.739,90.0795 559.174,89.9203 560.609,89.7611 562.043,89.6019 563.478,89.4427 564.913,89.2835 566.348,89.1243 567.783,88.9651 569.217,88.8059 570.652,88.6467 572.087,88.4875 573.522,88.3283 574.957,88.1691 576.391,88.0099 577.826,87.8507 579.261,87.6915 580.696,87.5323 582.13,87.3731 583.565,87.2139 585,87.0547 586.435,86.8955 587.87,86.7363 589.304,86.5771 590.739,86.4179 592.174,86.2587 593.609,86.0995 595.043,85.9403 596.478,85.7811 597.913,85.6219 599.348,85.4627 600.783,85.3035 602.217,85.1443 603.652,84.9851 605.087,84.8259 606.522,84.6667 607.957,84.5075 609.391,84.3483 610.826,84.1891 612.261,84.0299 613.696,83.8707 615.13,83.7115 616.565,83.5523 618,83.393 619.435,83.2338 620.87,83.0746 622.304,82.9154 623.739,82.7562 625.174,82.597 626.609,82.4378 628.043,82.2786 629.478,82.1194 630.913,81.9602 632.348,81.801 633.783,81.6418 635.217,81.4826 636.652,81.3234 638.087,81.1642 639.522,81.005 640.957,80.8458 642.391,80.6866 643.826,80.5274 645.261,80.3682 646.696,80.209 648.13,80.0498 649.565,79.8906 651,79.7314 652.435,79.5722 653.87,79.413 655.304,79.2538 656.739,79.0946 658.174,78.9354 659.609,78.7762 661.043,78.617 662.478,78.4578 663.913,78.2986 665.348,78.1394 666.783,77.9802 668.217,77.821 669.652,77.6618 671.087,77.5026 672.522,77.3434 673.957,77.1842 675.391,77.025 676.826,76.8658 678.261,76.7066 679.696,76.5474 681.13,76.3881 682.565,76.2289 684,76.0697 685.435,75.9105 686.87,75.7513 688.304,75.5921 689.739,75.4329 691.174,75.2737 692.609,75.1145 694.043,74.9553 695.478,74.7961 696.913,74.6369 698.348,74.4777 699.783,74.3185 701.217,74.1593 702.652,74.0001 704.087,73.8409 705.522,73.6817 706.957,73.5225 708.391,73.3633 709.826,73.2041 711.261,73.0449 712.696,72.8857 714.13,72.7265 715.565,72.5673 717,72.4081 718.435,72.2489 719.87,72.0897 721.304,71.9305 722.739,71.7713 724.174,71.6121 725.609,71.4529 727.043,71.2937 728.478,71.1345 729.913,70.9753 731.348,70.8161 732.783,70.6569 734.217,70.4977 735.652,70.3385 737.087,70.1793 738.522,70.0201 739.957,69.8609 741.391,69.7017 742.826,69.5425 744.261,69.3832 745.696,69.224 747.13,69.0648 748.565,68.9056 750,68.7464 751.435,68.5872 752.87,68.428 754.304,68.2688 755.739,68.1096 757.174,67.9504 758.609,67.7912 760.043,67.632 761.478,67.4728 762.913,67.3136 764.348,67.1544 765.783,66.9952 767.217,66.836 768.652,66.6768 770.087,66.5176 771.522,66.3584 772.957,66.1992 774.391,66.04 775.826,65.8808 777.261,65.7216 778.696,65.5624 780.13,65.4032 781.565,65.244 783,65.0848 784.436,64.9254 785.877,64.7655 787.327,64.6047 788.789,64.4424 790.268,64.2783 791.767,64.112 793.291,63.9429 794.842,63.7708 796.426,63.5951 798.045,63.4154 799.704,63.2314 801.406,63.0425 803.156,62.8483 841.304,58.6154 841.304,58.6154 841.304,58.6154 841.304,58.6154 841.304,58.6154 841.304,58.6154 841.304,58.6154 841.304,58.6154 841.304,58.6154 841.304,58.6154 841.304,58.6154 841.304,58.6154 841.304,58.6154 841.304,58.6154 "/>
<circle cx="58.6957" cy="449.385" r="8" fill="#2ca02c" stroke="black" stroke-width="2"/>
<circle cx="841.304" cy="58.6154" r="8" fill="#d62728" stroke="black" stroke-width="2"/>
<rect x="20" y="20" width="250" height="120" fill="white" opacity="0.85" stroke="black"/>
<line x1="35" y1="45" x2="85" y2="45" stroke="#000" stroke-width="3"/>
<text x="95" y="50" font-family="Arial" font-size="18">Lazy Theta*</text>
<line x1="35" y1="75" x2="85" y2="75" stroke="#1f77b4" stroke-width="3.5"/>
<text x="95" y="80" font-family="Arial" font-size="18">B-spline</text>
<circle cx="60" cy="105" r="7" fill="#2ca02c" stroke="black" stroke-width="2"/>
<text x="95" y="110" font-family="Arial" font-size="18">Start (A)</text>
<circle cx="60" cy="130" r="7" fill="#d62728" stroke="black" stroke-width="2"/>
<text x="95" y="135" font-family="Arial" font-size="18">Goal (B)</text>
</svg>
